<svg viewBox="0 0 602 602" xmlns="http://www.w3.org/2000/svg">
 <g>
  <title>background</title>
  <rect fill="#fff" id="canvas_background" height="604" width="604" y="-1" x="-1"></rect>
  <g display="none" overflow="visible" y="0" x="0" height="100%" width="100%" id="canvasGrid">
   <rect fill="url(#gridpattern)" stroke-width="0" y="0" x="0" height="100%" width="100%"></rect>
  </g>
 </g>
 <g>
  <title>Layer 1</title>
  <rect id="49" height="40" width="40" y="1" x="240.5" fill-opacity="null" stroke-opacity="null" stroke-width="1.5" stroke="#000" fill="#fff"></rect>
  <rect id="50" height="40" width="40" y="1" x="280.5" fill-opacity="null" stroke-opacity="null" stroke-width="1.5" stroke="#000" fill="#fff"></rect>
  <rect id="51" height="40" width="40" y="1" x="320.5" fill-opacity="null" stroke-opacity="null" stroke-width="1.5" stroke="#000" fill="#fff"></rect>
  <rect id="48" height="40" width="40" y="41" x="240.5" fill-opacity="null" stroke-opacity="null" stroke-width="1.5" stroke="#000" fill="#fff"></rect>
  <rect id="150" height="40" width="40" y="41" x="280.5" stroke-opacity="null" stroke-width="1.5" stroke="#000" fill="#ffaaaa"></rect>
  <rect id="0" height="40" width="40" y="41" x="320.5" stroke-opacity="null" stroke-width="1.5" stroke="#000" fill="#ffaaaa"></rect>
  <rect id="47" height="40" width="40" y="81" x="240.5" fill-opacity="null" stroke-opacity="null" stroke-width="1.5" stroke="#000" fill="#fff"></rect>
  <rect id="151" height="40" width="40" y="81" x="280.5" stroke-opacity="null" stroke-width="1.5" stroke="#000" fill="#ffaaaa"></rect>
  <rect id="1" height="40" width="40" y="81" x="320.5" fill-opacity="null" stroke-opacity="null" stroke-width="1.5" stroke="#000" fill="#fff"></rect>
  <rect id="46" height="40" width="40" y="121" x="240.5" fill-opacity="null" stroke-opacity="null" stroke-width="1.5" stroke="#000" fill="#fff"></rect>
  <rect id="152" height="40" width="40" y="121" x="280.5" stroke-opacity="null" stroke-width="1.5" stroke="#000" fill="#ffaaaa"></rect>
  <rect id="2" height="40" width="40" y="121" x="320.5" fill-opacity="null" stroke-opacity="null" stroke-width="1.5" stroke="#000" fill="#fff"></rect>
  <rect id="45" height="40" width="40" y="161" x="240.5" fill-opacity="null" stroke-opacity="null" stroke-width="1.5" stroke="#000" fill="#fff"></rect>
  <rect id="153" height="40" width="40" y="161" x="280.5" stroke-opacity="null" stroke-width="1.5" stroke="#000" fill="#ffaaaa"></rect>
  <rect id="3" height="40" width="40" y="161" x="320.5" fill-opacity="null" stroke-opacity="null" stroke-width="1.5" stroke="#000" fill="#fff"></rect>
  <rect id="44" height="40" width="40" y="201" x="240.5" fill-opacity="null" stroke-opacity="null" stroke-width="1.5" stroke="#000" fill="#fff"></rect>
  <rect id="154" height="40" width="40" y="201" x="280.5" stroke-opacity="null" stroke-width="1.5" stroke="#000" fill="#ffaaaa"></rect>
  <rect id="4" height="40" width="40" y="201" x="320.5" fill-opacity="null" stroke-opacity="null" stroke-width="1.5" stroke="#000" fill="#fff"></rect>
  <rect id="30" height="40" width="40" y="361" x="240.5" fill-opacity="null" stroke-opacity="null" stroke-width="1.5" stroke="#000" fill="#fff"></rect>
  <rect id="128" height="40" width="40" y="361" x="280.5" stroke-opacity="null" stroke-width="1.5" stroke="#000" fill="#aad4ff"></rect>
  <rect id="18" height="40" width="40" y="361" x="320.5" fill-opacity="null" stroke-opacity="null" stroke-width="1.5" stroke="#000" fill="#fff"></rect>
  <rect id="29" height="40" width="40" y="401" x="240.5" fill-opacity="null" stroke-opacity="null" stroke-width="1.5" stroke="#000" fill="#fff"></rect>
  <rect id="127" height="40" width="40" y="401" x="280.5" stroke-opacity="null" stroke-width="1.5" stroke="#000" fill="#aad4ff"></rect>
  <rect id="19" height="40" width="40" y="401" x="320.5" fill-opacity="null" stroke-opacity="null" stroke-width="1.5" stroke="#000" fill="#fff"></rect>
  <rect id="28" height="40" width="40" y="441" x="240.5" fill-opacity="null" stroke-opacity="null" stroke-width="1.5" stroke="#000" fill="#fff"></rect>
  <rect id="126" height="40" width="40" y="441" x="280.5" stroke-opacity="null" stroke-width="1.5" stroke="#000" fill="#aad4ff"></rect>
  <rect id="20" height="40" width="40" y="441" x="320.5" fill-opacity="null" stroke-opacity="null" stroke-width="1.5" stroke="#000" fill="#fff"></rect>
  <rect id="27" height="40" width="40" y="481" x="240.5" fill-opacity="null" stroke-opacity="null" stroke-width="1.5" stroke="#000" fill="#fff"></rect>
  <rect id="125" height="40" width="40" y="481" x="280.5" stroke-opacity="null" stroke-width="1.5" stroke="#000" fill="#aad4ff"></rect>
  <rect id="21" height="40" width="40" y="481" x="320.5" fill-opacity="null" stroke-opacity="null" stroke-width="1.5" stroke="#000" fill="#fff"></rect>
  <rect id="26" height="40" width="40" y="521" x="240.5" stroke-opacity="null" stroke-width="1.5" stroke="#000" fill="#aad4ff"></rect>
  <rect id="124" height="40" width="40" y="521" x="280.5" stroke-opacity="null" stroke-width="1.5" stroke="#000" fill="#aad4ff"></rect>
  <rect id="22" height="40" width="40" y="521" x="320.5" fill-opacity="null" stroke-opacity="null" stroke-width="1.5" stroke="#000" fill="#fff"></rect>
  <rect id="25" height="40" width="40" y="561" x="240.5" fill-opacity="null" stroke-opacity="null" stroke-width="1.5" stroke="#000" fill="#fff"></rect>
  <rect id="24" height="40" width="40" y="561" x="280.5" fill-opacity="null" stroke-opacity="null" stroke-width="1.5" stroke="#000" fill="#fff"></rect>
  <rect id="23" height="40" width="40" y="561" x="320.5" fill-opacity="null" stroke-opacity="null" stroke-width="1.5" stroke="#000" fill="#fff"></rect>
  <rect id="5" height="40" width="40" y="241" x="360.5" fill-opacity="null" stroke-opacity="null" stroke-width="1.5" stroke="#000" fill="#fff"></rect>
  <rect id="6" height="40" width="40" y="241" x="400.5" fill-opacity="null" stroke-opacity="null" stroke-width="1.5" stroke="#000" fill="#fff"></rect>
  <rect id="7" height="40" width="40" y="241" x="440.5" fill-opacity="null" stroke-opacity="null" stroke-width="1.5" stroke="#000" fill="#fff"></rect>
  <rect id="115" height="40" width="40" y="281" x="360.5" stroke-opacity="null" stroke-width="1.5" stroke="#000" fill="#ffffaa"></rect>
  <rect id="114" height="40" width="40" y="281" x="400.5" stroke-opacity="null" stroke-width="1.5" stroke="#000" fill="#ffffaa"></rect>
  <rect id="113" height="40" width="40" y="281" x="440.5" stroke-opacity="null" stroke-width="1.5" stroke="#000" fill="#ffffaa"></rect>
  <rect id="17" height="40" width="40" y="321" x="360.5" fill-opacity="null" stroke-opacity="null" stroke-width="1.5" stroke="#000" fill="#fff"></rect>
  <rect id="16" height="40" width="40" y="321" x="400.5" fill-opacity="null" stroke-opacity="null" stroke-width="1.5" stroke="#000" fill="#fff"></rect>
  <rect id="15" height="40" width="40" y="321" x="440.5" fill-opacity="null" stroke-opacity="null" stroke-width="1.5" stroke="#000" fill="#fff"></rect>
  <rect id="8" height="40" width="40" y="241" x="480.5" fill-opacity="null" stroke-opacity="null" stroke-width="1.5" stroke="#000" fill="#fff"></rect>
  <rect id="9" height="40" width="40" y="241" x="520.5" fill-opacity="null" stroke-opacity="null" stroke-width="1.5" stroke="#000" fill="#fff"></rect>
  <rect id="10" height="40" width="40" y="241" x="560.5" fill-opacity="null" stroke-opacity="null" stroke-width="1.5" stroke="#000" fill="#fff"></rect>
  <rect id="112" height="40" width="40" y="281" x="480.5" stroke-opacity="null" stroke-width="1.5" stroke="#000" fill="#ffffaa"></rect>
  <rect id="111" height="40" width="40" y="281" x="520.5" stroke-opacity="null" stroke-width="1.5" stroke="#000" fill="#ffffaa"></rect>
  <rect id="11" height="40" width="40" y="281" x="560.5" stroke-opacity="null" stroke-width="1.5" stroke="#000" fill="#ffffff"></rect>
  <rect id="14" height="40" width="40" y="321" x="480.5" fill-opacity="null" stroke-opacity="null" stroke-width="1.5" stroke="#000" fill="#fff"></rect>
  <rect id="13" height="40" width="40" y="321" x="520.5" stroke-opacity="null" stroke-width="1.5" stroke="#000" fill="#ffffaa"></rect>
  <rect id="12" height="40" width="40" y="321" x="560.5" fill-opacity="null" stroke-opacity="null" stroke-width="1.5" stroke="#000" fill="#fff"></rect>
  <rect id="38" height="40" width="40" y="241" x="0.5" fill-opacity="null" stroke-opacity="null" stroke-width="1.5" stroke="#000" fill="#fff"></rect>
  <rect id="39" height="40" width="40" y="241" x="40.5" stroke-opacity="null" stroke-width="1.5" stroke="#000" fill="#aaffaa"></rect>
  <rect id="40" height="40" width="40" y="241" x="80.5" fill-opacity="null" stroke-opacity="null" stroke-width="1.5" stroke="#000" fill="#fff"></rect>
  <rect id="37" height="40" width="40" y="281" x="0.5" fill-opacity="null" stroke-opacity="null" stroke-width="1.5" stroke="#000" fill="#fff"></rect>
  <rect id="137" height="40" width="40" y="281" x="40.5" stroke-opacity="null" stroke-width="1.5" stroke="#000" fill="#aaffaa"></rect>
  <rect id="138" height="40" width="40" y="281" x="80.5" stroke-opacity="null" stroke-width="1.5" stroke="#000" fill="#aaffaa"></rect>
  <rect id="36" height="40" width="40" y="321" x="0.5" fill-opacity="null" stroke-opacity="null" stroke-width="1.5" stroke="#000" fill="#fff"></rect>
  <rect id="35" height="40" width="40" y="321" x="40.5" fill-opacity="null" stroke-opacity="null" stroke-width="1.5" stroke="#000" fill="#fff"></rect>
  <rect id="34" height="40" width="40" y="321" x="80.5" fill-opacity="null" stroke-opacity="null" stroke-width="1.5" stroke="#000" fill="#fff"></rect>
  <rect id="41" height="40" width="40" y="241" x="120.5" fill-opacity="null" stroke-opacity="null" stroke-width="1.5" stroke="#000" fill="#fff"></rect>
  <rect id="42" height="40" width="40" y="241" x="160.5" fill-opacity="null" stroke-opacity="null" stroke-width="1.5" stroke="#000" fill="#fff"></rect>
  <rect id="43" height="40" width="40" y="241" x="200.5" fill-opacity="null" stroke-opacity="null" stroke-width="1.5" stroke="#000" fill="#fff"></rect>
  <rect id="139" height="40" width="40" y="281" x="120.5" stroke-opacity="null" stroke-width="1.5" stroke="#000" fill="#aaffaa"></rect>
  <rect id="140" height="40" width="40" y="281" x="160.5" stroke-opacity="null" stroke-width="1.5" stroke="#000" fill="#aaffaa"></rect>
  <rect id="141" height="40" width="40" y="281" x="200.5" stroke-opacity="null" stroke-width="1.5" stroke="#000" fill="#aaffaa"></rect>
  <rect id="33" height="40" width="40" y="321" x="120.5" fill-opacity="null" stroke-opacity="null" stroke-width="1.5" stroke="#000" fill="#fff"></rect>
  <rect id="32" height="40" width="40" y="321" x="160.5" fill-opacity="null" stroke-opacity="null" stroke-width="1.5" stroke="#000" fill="#fff"></rect>
  <rect id="31" height="40" width="40" y="321" x="200.5" fill-opacity="null" stroke-opacity="null" stroke-width="1.5" stroke="#000" fill="#fff"></rect>
  <rect id="svg_128" height="240" width="240" y="1" x="360.5" stroke-opacity="null" stroke-width="1.5" stroke="#000" fill="#ffaaaa"></rect>
  <rect id="svg_129" height="240" width="240" y="1" x="0.5" stroke-opacity="null" stroke-width="1.5" stroke="#000" fill="#aaffaa"></rect>
  <rect id="svg_130" height="240" width="240" y="361" x="0.5" stroke-opacity="null" stroke-width="1.5" stroke="#000" fill="#aad4ff"></rect>
  <rect id="svg_131" height="240" width="240" y="361" x="360.5" stroke-opacity="null" stroke-width="1.5" stroke="#000" fill="#ffffaa"></rect>
  <rect id="svg_132" height="120" width="120" y="241" x="240.5" fill-opacity="null" stroke-opacity="null" stroke-width="1.5" stroke="#000" fill="#fff"></rect>
  <rect id="GHome1" height="63" width="63" y="43.449997" x="39" stroke-opacity="null" stroke-width="1.5" stroke="#000" fill="#56ffaa"></rect>
  <rect id="GHome4" height="63" width="63" y="137.449997" x="39" stroke-opacity="null" stroke-width="1.5" stroke="#000" fill="#56ffaa"></rect>
  <rect id="GHome2" height="63" width="63" y="43" x="138" stroke-opacity="null" stroke-width="1.5" stroke="#000" fill="#56ffaa"></rect>
  <rect id="GHome3" height="63" width="63" y="137" x="138" stroke-opacity="null" stroke-width="1.5" stroke="#000" fill="#56ffaa"></rect>
  <rect id="RHome1" height="63" width="63" y="43.449997" x="399" stroke-opacity="null" stroke-width="1.5" stroke="#000" fill="#ff5656" class="redHome"></rect>
  <rect id="RHome4" height="63" width="63" y="137.449997" x="399" stroke-opacity="null" stroke-width="1.5" stroke="#000" fill="#ff5656"></rect>
  <rect id="RHome2" height="63" width="63" y="43" x="498" stroke-opacity="null" stroke-width="1.5" stroke="#000" fill="#ff5656"></rect>
  <rect id="RHome3" height="63" width="63" y="137" x="498" stroke-opacity="null" stroke-width="1.5" stroke="#000" fill="#ff5656"></rect>
  <rect id="YHome1" height="63" width="63" y="403.449997" x="399" stroke-opacity="null" stroke-width="1.5" stroke="#000" fill="#ffff56"></rect>
  <rect id="YHome4" height="63" width="63" y="497.449997" x="399" stroke-opacity="null" stroke-width="1.5" stroke="#000" fill="#ffff56"></rect>
  <rect id="YHome2" height="63" width="63" y="403" x="498" stroke-opacity="null" stroke-width="1.5" stroke="#000" fill="#ffff56"></rect>
  <rect id="YHome3" height="63" width="63" y="497" x="498" stroke-opacity="null" stroke-width="1.5" stroke="#000" fill="#ffff56"></rect>
  <rect id="BHome1" height="63" width="63" y="403.449997" x="39" stroke-opacity="null" stroke-width="1.5" stroke="#000" fill="#56aaff"></rect>
  <rect id="BHome4" height="63" width="63" y="497.449997" x="39" stroke-opacity="null" stroke-width="1.5" stroke="#000" fill="#56aaff"></rect>
  <rect id="BHome2" height="63" width="63" y="403" x="138" stroke-opacity="null" stroke-width="1.5" stroke="#000" fill="#56aaff"></rect>
  <rect id="BHome3" height="63" width="63" y="497" x="138" stroke-opacity="null" stroke-width="1.5" stroke="#000" fill="#56aaff"></rect>
  <ellipse id="G1" ry="10.5" rx="10.5" cy="75.949997" cx="70" stroke-opacity="null" stroke-width="1.5" stroke="#000" fill="#007f00"></ellipse>
  <ellipse id="G2" ry="10.5" rx="10.5" cy="75.949997" cx="170" stroke-opacity="null" stroke-width="1.5" stroke="#000" fill="#007f00"></ellipse>
  <ellipse id="G3" ry="10.5" rx="10.5" cy="168.949997" cx="170" stroke-opacity="null" stroke-width="1.5" stroke="#000" fill="#007f00"></ellipse>
  <ellipse id="G4" ry="10.5" rx="10.5" cy="168.949997" cx="70" stroke-opacity="null" stroke-width="1.5" stroke="#000" fill="#007f00"></ellipse>
  <ellipse id="R1" ry="10.5" rx="10.5" cy="75.949997" cx="430" stroke-opacity="null" stroke-width="1.5" stroke="#000" fill="#bf0000"></ellipse>
  <ellipse id="R2" ry="10.5" rx="10.5" cy="75.949997" cx="530" stroke-opacity="null" stroke-width="1.5" stroke="#000" fill="#bf0000"></ellipse>
  <ellipse id="R3" ry="10.5" rx="10.5" cy="168.949997" cx="530" stroke-opacity="null" stroke-width="1.5" stroke="#000" fill="#bf0000"></ellipse>
  <ellipse id="R4" ry="10.5" rx="10.5" cy="168.949997" cx="430" stroke-opacity="null" stroke-width="1.5" stroke="#000" fill="#bf0000"></ellipse>
  <ellipse id="Y1" ry="10.5" rx="10.5" cy="435.949997" cx="430" stroke-opacity="null" stroke-width="1.5" stroke="#000" fill="#bfbf00"></ellipse>
  <ellipse id="Y2" ry="10.5" rx="10.5" cy="435.949997" cx="530" stroke-opacity="null" stroke-width="1.5" stroke="#000" fill="#bfbf00"></ellipse>
  <ellipse id="Y3" ry="10.5" rx="10.5" cy="528.949997" cx="530" stroke-opacity="null" stroke-width="1.5" stroke="#000" fill="#bfbf00"></ellipse>
  <ellipse id="Y4" ry="10.5" rx="10.5" cy="528.949997" cx="430" stroke-opacity="null" stroke-width="1.5" stroke="#000" fill="#bfbf00"></ellipse>
  <ellipse id="B1" ry="10.5" rx="10.5" cy="435.949997" cx="70" stroke-opacity="null" stroke-width="1.5" stroke="#000" fill="#0000bf"></ellipse>
  <ellipse id="B2" ry="10.5" rx="10.5" cy="435.949997" cx="170" stroke-opacity="null" stroke-width="1.5" stroke="#000" fill="#0000bf"></ellipse>
  <ellipse id="B3" ry="10.5" rx="10.5" cy="528.949997" cx="170" stroke-opacity="null" stroke-width="1.5" stroke="#000" fill="#0000bf"></ellipse>
  <ellipse id="B4" ry="10.5" rx="10.5" cy="528.949997" cx="70" stroke-opacity="null" stroke-width="1.5" stroke="#000" fill="#0000bf"></ellipse>
 </g>
</svg>
